<svg xmlns="http://www.w3.org/2000/svg" xmlns:xlink="http://www.w3.org/1999/xlink" viewBox="0 0 748.35 100"><defs><style>.cls-1{fill:#343e48;}.cls-2{fill:url(#Dégradé_sans_nom_17);}.cls-3{fill:url(#Dégradé_sans_nom_17-2);}</style><linearGradient id="Dégradé_sans_nom_17" x1="41.3" y1="82.6" x2="41.3" gradientUnits="userSpaceOnUse"><stop offset="0" stop-color="#3371ec"/><stop offset="1" stop-color="#3371ec" stop-opacity="0"/></linearGradient><linearGradient id="Dégradé_sans_nom_17-2" x1="-2497.28" y1="-2490.92" x2="-2497.28" y2="-2573.52" gradientTransform="translate(66 -3497.69) rotate(-135)" xlink:href="#Dégradé_sans_nom_17"/></defs><g id="Calque_2" data-name="Calque 2"><g id="BG"><path class="cls-1" d="M133,37.13l-7.83,1.61c-.52-3.63-3.69-6-7.61-6-3.74,0-6.27,2.08-6.27,4.78,0,2.14,1.26,3.4,3.85,3.92l8.3,1.67c6.4,1.39,10.14,5.13,10.14,11.06a10.6,10.6,0,0,1-4.2,8.88c-2.83,2.18-6.52,3.28-11.12,3.28a19,19,0,0,1-10.89-3,11.18,11.18,0,0,1-5.24-8.46l8.23-1.68c1,4.21,3.86,6.28,8.65,6.28,4.37,0,6.85-2.07,6.85-4.89,0-2.31-1.21-3.52-4.49-4.21l-8.18-1.55C106.42,47.38,103,43.7,103,37.76a10.51,10.51,0,0,1,4-8.52c2.65-2.13,6.22-3.23,10.72-3.23C125.54,26,131.53,30.27,133,37.13Z"/><path class="cls-1" d="M166.61,40.18a15.11,15.11,0,0,1,4.21,11A14.88,14.88,0,0,1,166.61,62a13.4,13.4,0,0,1-9.91,4.32,14.75,14.75,0,0,1-9.5-3.11v12h-7.61V36.73h7.61V39a14.23,14.23,0,0,1,9.5-3.17A13.49,13.49,0,0,1,166.61,40.18Zm-3.16,11c0-5.24-3.4-8.64-8.07-8.64a8,8,0,0,0-5.7,2.42,8.25,8.25,0,0,0-2.48,6.22,8.37,8.37,0,0,0,8.18,8.58C160.05,59.71,163.45,56.37,163.45,51.13Z"/><path class="cls-1" d="M204.63,36.73V65.47H197V63.23a14.77,14.77,0,0,1-9.51,3.11A13.41,13.41,0,0,1,177.61,62a14.91,14.91,0,0,1-4.2-10.89,15.19,15.19,0,0,1,4.26-11,13.38,13.38,0,0,1,9.85-4.32A14.28,14.28,0,0,1,197,39v-2.3ZM194.55,57.29A8,8,0,0,0,197,51.13a8.25,8.25,0,0,0-2.48-6.22,8,8,0,0,0-5.7-2.42c-4.67,0-8.07,3.4-8.07,8.64s3.4,8.58,8.07,8.58A8,8,0,0,0,194.55,57.29Z"/><path class="cls-1" d="M231.76,36.55l-.4,7.32h-1.67c-6.86,0-10.26,4.09-10.26,12.33v9.27h-7.6V36.73h7.6V42a12,12,0,0,1,10.31-5.65A6.31,6.31,0,0,1,231.76,36.55Z"/><path class="cls-1" d="M240.63,56.31c.34,2.6,2.3,3.92,5.93,3.92,2.77,0,4.5-1.21,4.5-2.88,0-1.27-1-2.13-3.17-2.59L242,53.55c-5.24-1.1-8.12-4-8.12-8.18,0-5.59,4.61-9.51,11.75-9.51,6.68,0,11.52,3.46,12.5,8.53l-7.26,1.44c-.29-2.36-2.42-4-5.47-4-2.76,0-3.92,1.27-3.92,2.83,0,1.21.87,2,2.6,2.42l6.85,1.5c4.9,1.09,7.55,4.14,7.55,8.12,0,6.22-5,9.62-12.62,9.62a16.88,16.88,0,0,1-8.76-2.13A8,8,0,0,1,233,57.87Z"/><path class="cls-1" d="M290.63,53.15H268.74c.75,4.09,3.68,6.68,7.2,6.68a7.67,7.67,0,0,0,7.14-3.8l6.8,1.44c-2.48,5.82-7.49,8.87-13.94,8.87a14.32,14.32,0,0,1-10.49-4.26,14.92,14.92,0,0,1-4.26-10.95,14.92,14.92,0,0,1,4.32-11A14.88,14.88,0,0,1,286.19,40a15,15,0,0,1,4.44,10.6ZM269,47.79h13.88a6.69,6.69,0,0,0-6.8-5.3A7.12,7.12,0,0,0,269,47.79Z"/><path class="cls-1" d="M333.17,34H320.32V65.47h-7.83V34H299.64V26.88h33.53Z"/><path class="cls-1" d="M359.44,53.15h-21.9c.75,4.09,3.69,6.68,7.21,6.68a7.67,7.67,0,0,0,7.14-3.8l6.8,1.44c-2.48,5.82-7.49,8.87-13.94,8.87a14.31,14.31,0,0,1-10.49-4.26A14.92,14.92,0,0,1,330,51.13a14.92,14.92,0,0,1,4.32-11A14.88,14.88,0,0,1,355,40a15.07,15.07,0,0,1,4.44,10.6Zm-21.66-5.36h13.88a6.69,6.69,0,0,0-6.8-5.3A7.12,7.12,0,0,0,337.78,47.79Z"/><path class="cls-1" d="M389.33,39.2A12.24,12.24,0,0,1,392.5,48V65.47h-7.6V49.57c0-4.09-2.31-6.74-5.82-6.74-4.78,0-7.15,3.29-7.15,9.91V65.47h-7.6V36.73h7.6v2.59A12.19,12.19,0,0,1,381,35.86,11,11,0,0,1,389.33,39.2Z"/><path class="cls-1" d="M404.19,56.31c.35,2.6,2.3,3.92,5.93,3.92,2.77,0,4.5-1.21,4.5-2.88,0-1.27-1-2.13-3.17-2.59l-5.88-1.21c-5.24-1.1-8.12-4-8.12-8.18,0-5.59,4.61-9.51,11.75-9.51,6.69,0,11.53,3.46,12.5,8.53l-7.25,1.44c-.29-2.36-2.42-4-5.48-4-2.76,0-3.91,1.27-3.91,2.83,0,1.21.86,2,2.59,2.42l6.85,1.5c4.9,1.09,7.55,4.14,7.55,8.12,0,6.22-4.95,9.62-12.62,9.62a16.84,16.84,0,0,1-8.75-2.13,8.06,8.06,0,0,1-4.15-6.34Z"/><path class="cls-1" d="M451.43,40.24a14.3,14.3,0,0,1,4.49,10.89A14.17,14.17,0,0,1,451.43,62a15.64,15.64,0,0,1-11,4.26A15.8,15.8,0,0,1,429.3,62a14,14,0,0,1-4.55-10.83,14.14,14.14,0,0,1,4.55-10.89A15.75,15.75,0,0,1,440.42,36,15.59,15.59,0,0,1,451.43,40.24Zm-5.36,17a8,8,0,0,0,2.48-6.16,8.25,8.25,0,0,0-2.48-6.22,8,8,0,0,0-5.65-2.36,8.35,8.35,0,0,0-8.29,8.58,8.35,8.35,0,0,0,8.29,8.58A7.85,7.85,0,0,0,446.07,57.29Z"/><path class="cls-1" d="M480.74,36.55l-.4,7.32h-1.67c-6.85,0-10.25,4.09-10.25,12.33v9.27h-7.61V36.73h7.61V42a12,12,0,0,1,10.31-5.65A6.28,6.28,0,0,1,480.74,36.55Z"/><path class="cls-1" d="M524.86,49.34l7.61,1.56a18,18,0,0,1-6.63,11.35,20.76,20.76,0,0,1-26.79-1.73,19.36,19.36,0,0,1-5.87-14.35,19.54,19.54,0,0,1,5.87-14.34A20.89,20.89,0,0,1,525.78,30a17.94,17.94,0,0,1,6.69,10.88L524.86,43c-1.38-6.4-5.82-9.62-11.4-9.62A11.85,11.85,0,0,0,504.64,37a12.82,12.82,0,0,0-3.57,9.16,12.57,12.57,0,0,0,3.63,9.16A11.61,11.61,0,0,0,513.46,59C519.16,59,523.48,55.8,524.86,49.34Z"/><path class="cls-1" d="M545.54,65.47h-7.61V24h7.61Z"/><path class="cls-1" d="M581.66,36.73V65.47h-7.61V63.23a14.75,14.75,0,0,1-9.5,3.11A13.4,13.4,0,0,1,554.64,62a14.88,14.88,0,0,1-4.21-10.89,15.19,15.19,0,0,1,4.26-11,13.4,13.4,0,0,1,9.86-4.32,14.23,14.23,0,0,1,9.5,3.17v-2.3ZM571.57,57.29a8,8,0,0,0,2.48-6.16,8.21,8.21,0,0,0-2.48-6.22,8,8,0,0,0-5.7-2.42c-4.67,0-8.06,3.4-8.06,8.64s3.39,8.58,8.06,8.58A8,8,0,0,0,571.57,57.29Z"/><path class="cls-1" d="M594.09,56.31c.35,2.6,2.31,3.92,5.94,3.92,2.76,0,4.49-1.21,4.49-2.88,0-1.27-1-2.13-3.17-2.59l-5.87-1.21c-5.24-1.1-8.13-4-8.13-8.18,0-5.59,4.61-9.51,11.76-9.51,6.68,0,11.52,3.46,12.5,8.53l-7.26,1.44c-.29-2.36-2.42-4-5.47-4-2.77,0-3.92,1.27-3.92,2.83,0,1.21.86,2,2.59,2.42l6.86,1.5c4.89,1.09,7.54,4.14,7.54,8.12,0,6.22-5,9.62-12.61,9.62a16.88,16.88,0,0,1-8.76-2.13,8.08,8.08,0,0,1-4.15-6.34Z"/><path class="cls-1" d="M621.63,56.31c.34,2.6,2.3,3.92,5.93,3.92,2.77,0,4.5-1.21,4.5-2.88,0-1.27-1-2.13-3.17-2.59L623,53.55c-5.24-1.1-8.12-4-8.12-8.18,0-5.59,4.61-9.51,11.75-9.51,6.68,0,11.52,3.46,12.5,8.53l-7.26,1.44c-.28-2.36-2.42-4-5.47-4-2.76,0-3.92,1.27-3.92,2.83,0,1.21.87,2,2.6,2.42l6.85,1.5c4.9,1.09,7.55,4.14,7.55,8.12,0,6.22-5,9.62-12.62,9.62a16.88,16.88,0,0,1-8.76-2.13A8,8,0,0,1,614,57.87Z"/><path class="cls-1" d="M653.31,28.14a4.45,4.45,0,0,1-4.61,4.44,4.38,4.38,0,0,1-4.61-4.44,4.59,4.59,0,0,1,1.33-3.22C648.07,22,653.6,24.34,653.31,28.14Zm-.81,37.33h-7.6V36.73h7.6Z"/><path class="cls-1" d="M688.8,36.73V65.47h-7.61V43h-12V65.47H661.6V43h-4.38V36.73h4.38V34.14c0-6.69,4.55-10.89,11.52-10.89a13,13,0,0,1,5.13,1l-1.67,6.17a11.69,11.69,0,0,0-2.94-.46c-2.7,0-4.43,1.44-4.43,4.15v2.59Zm-8.42-8.59a4.61,4.61,0,0,1,9.22,0A4.45,4.45,0,0,1,685,32.58,4.38,4.38,0,0,1,680.38,28.14Z"/><path class="cls-1" d="M723.53,53.15H701.64c.75,4.09,3.68,6.68,7.2,6.68A7.67,7.67,0,0,0,716,56l6.8,1.44c-2.48,5.82-7.49,8.87-13.94,8.87a14.32,14.32,0,0,1-10.49-4.26,14.92,14.92,0,0,1-4.26-10.95,14.92,14.92,0,0,1,4.32-11A14.88,14.88,0,0,1,719.09,40a15,15,0,0,1,4.44,10.6Zm-21.66-5.36h13.88a6.69,6.69,0,0,0-6.8-5.3A7.12,7.12,0,0,0,701.87,47.79Z"/><path class="cls-1" d="M748.35,36.55l-.4,7.32h-1.67C739.42,43.87,736,48,736,56.2v9.27h-7.61V36.73H736V42a12,12,0,0,1,10.31-5.65A6.28,6.28,0,0,1,748.35,36.55Z"/><path class="cls-2" d="M41.3,0A41.3,41.3,0,1,0,82.6,41.3,41.3,41.3,0,0,0,41.3,0Zm0,65.19A23.9,23.9,0,1,1,65.19,41.3,23.9,23.9,0,0,1,41.3,65.19Z"/><path class="cls-3" d="M12.1,87.9a41.3,41.3,0,1,0,0-58.4A41.29,41.29,0,0,0,12.1,87.9ZM58.19,41.81a23.89,23.89,0,1,1-33.79,0A23.89,23.89,0,0,1,58.19,41.81Z"/></g></g></svg>